<svg width="145" height="30" viewBox="0 0 145 30" fill="none" xmlns="http://www.w3.org/2000/svg">
<path d="M18.3538 3.97247C17.8681 3.5185 17.6261 2.96607 17.6261 2.31183C17.6261 1.65759 17.8731 1.10849 18.3705 0.666209C18.8662 0.223928 19.452 0.00195312 20.1262 0.00195312C20.8005 0.00195312 21.3763 0.223928 21.8503 0.666209C22.3243 1.10849 22.563 1.65759 22.563 2.31183C22.563 2.96607 22.326 3.52017 21.8503 3.97247C21.3763 4.42643 20.8005 4.65341 20.1262 4.65341C19.452 4.65341 18.8395 4.42643 18.3538 3.97247ZM22.0239 8.03811V22.817H18.1952V8.03811H22.0239Z" fill="white"/>
<path d="M42.1502 11.4876C41.2423 11.4876 40.5146 11.788 39.9672 12.3889C39.4181 12.9897 39.1444 13.8392 39.1444 14.9357V22.815H35.284V14.682C35.2623 13.6907 34.9986 12.9096 34.4929 12.3405C33.9872 11.7713 33.343 11.4859 32.5619 11.4859C31.6757 11.4859 30.9363 11.7663 30.3472 12.3238C29.7564 12.8829 29.4609 13.7541 29.4609 14.9341V22.8133H25.6006V8.03781H29.4609V10.2208C29.8415 9.39803 30.4373 8.78051 31.2484 8.36994C32.0612 7.9577 32.879 7.75241 33.7018 7.75241C36.0651 7.87926 37.6356 8.7972 38.4167 10.5062C39.4715 8.65033 41.022 7.7207 43.0682 7.7207C44.8824 7.7207 46.2843 8.28983 47.2774 9.42974C48.2687 10.5697 48.7644 12.2153 48.7644 14.3666V22.8167H44.9358V14.7788C44.9358 13.7457 44.6771 12.9379 44.1614 12.3588C43.644 11.778 42.9747 11.4893 42.1519 11.4893L42.1502 11.4876Z" fill="white"/>
<path d="M56.0111 8.03781V10.0306C56.3916 9.31291 57.0075 8.7488 57.862 8.33823C58.7165 7.92766 59.6395 7.7207 60.6309 7.7207C62.6136 7.7207 64.3126 8.43837 65.7263 9.87202C67.1399 11.3074 67.8459 13.1532 67.8459 15.4097C67.8459 17.6662 67.1449 19.5705 65.7413 20.9958C64.3377 22.4195 62.6353 23.1321 60.6309 23.1321C59.6395 23.1321 58.7165 22.9318 57.862 22.5313C57.0075 22.1307 56.39 21.5716 56.0111 20.8539V30H52.1508V8.03781H56.0111ZM56.0745 15.4748C56.0745 16.6982 56.4601 17.6695 57.2295 18.3855C57.9989 19.1032 58.9218 19.462 59.9983 19.462C61.0748 19.462 62.0178 19.0932 62.7672 18.3538C63.5165 17.6161 63.8904 16.6564 63.8904 15.4748C63.8904 14.2932 63.5099 13.3235 62.7505 12.5641C61.9911 11.8047 61.0731 11.4242 59.9967 11.4242C58.9202 11.4242 57.9705 11.7997 57.2111 12.5474C56.4517 13.2968 56.0712 14.2715 56.0712 15.4748H56.0745Z" fill="white"/>
<path d="M70.5046 22.8167V0H74.365V22.8167H70.5046Z" fill="white"/>
<path d="M78.0984 3.97247C77.6127 3.5185 77.3707 2.96607 77.3707 2.31183C77.3707 1.65759 77.6177 1.10849 78.1151 0.666209C78.6108 0.223928 79.1966 0.00195312 79.8709 0.00195312C80.5451 0.00195312 81.1209 0.223928 81.5949 0.666209C82.0689 1.10849 82.3076 1.65759 82.3076 2.31183C82.3076 2.96607 82.0706 3.52017 81.5949 3.97247C81.1209 4.42643 80.5451 4.65341 79.8709 4.65341C79.1966 4.65341 78.5841 4.42643 78.0984 3.97247ZM81.7685 8.03811V22.817H77.9399V8.03811H81.7685Z" fill="white"/>
<path d="M97.6857 15.7582L104.617 1.0127H108.098L110.757 22.8163H106.707L105.029 8.29114L99.333 20.3479H96.1052L90.3772 8.29114L88.6682 22.8163H84.6176L87.3063 1.0127H90.7244L97.6857 15.7598V15.7582Z" fill="white"/>
<path d="M123.35 15.9174V8.03809H127.21V22.8169H123.35V20.729C122.949 21.4884 122.363 22.0793 121.594 22.5015C120.823 22.9238 120.048 23.1341 119.267 23.1341C117.473 23.1341 116.055 22.585 115.011 21.4884C113.967 20.3919 113.444 18.8197 113.444 16.7736V8.03809H117.336V16.0759C117.336 17.1941 117.61 18.022 118.159 18.5594C118.708 19.0968 119.372 19.3672 120.152 19.3672C121.058 19.3672 121.818 19.0884 122.43 18.5293C123.041 17.9702 123.348 17.1007 123.348 15.919L123.35 15.9174Z" fill="white"/>
<path d="M135.089 22.8169L128.887 8.03809H133.001L136.798 17.8801L140.595 8.03809H144.741L138.507 22.8169H135.089Z" fill="white"/>
<path d="M15.4865 16.4212C15.4631 15.1778 15.0409 14.0379 14.2698 13.0348C13.0999 11.4393 10.5981 10.5831 8.58859 10.079C8.4701 10.0557 8.3516 10.0457 8.23477 10.0457C7.40362 10.0457 6.64423 10.5998 6.41725 11.4393C6.16523 12.3689 6.65591 13.3202 7.52545 13.674L7.54548 13.6824L7.69569 13.7341C8.27649 13.8826 8.89235 14.0362 9.44312 14.2749C9.46982 14.2865 9.49819 14.2982 9.52323 14.3099C10.0323 14.5352 10.4395 14.7956 10.7416 15.091C10.8501 15.1978 10.9469 15.3113 11.0303 15.4281C11.1355 15.5783 11.2223 15.7419 11.2857 15.9138C11.3975 16.2126 11.4426 16.538 11.4225 16.8952C11.3791 17.6546 11.032 18.2821 10.3794 18.7778C9.72517 19.2735 8.87065 19.5221 7.81752 19.5221C7.11154 19.5221 6.49235 19.402 5.96328 19.1616C5.91655 19.1416 5.87149 19.1183 5.82476 19.0966C5.57107 18.968 5.33741 18.8095 5.12712 18.6209C4.77663 18.3088 4.51293 17.965 4.33268 17.5878C4.24923 17.4126 4.18414 17.2306 4.13741 17.042C4.09068 16.8534 4.06231 16.6565 4.05229 16.4546H0C0 17.3925 0.176912 18.2571 0.534075 19.0448C1.11655 20.3383 2.17969 21.4031 3.4064 22.1057C5.43254 23.239 7.95772 23.4009 10.2058 22.8868C11.2957 22.6198 12.2754 22.1575 13.1466 21.4999C14.7872 20.3099 15.5466 18.4106 15.4882 16.4228L15.4865 16.4212Z" fill="white"/>
<path d="M12.766 2.5469C12.2937 2.13299 11.7763 1.79085 11.2122 1.52048C11.1621 1.49711 11.1104 1.47208 11.0586 1.44871C11.0119 1.42868 10.9668 1.40699 10.9201 1.38696C9.93208 0.968044 8.81219 0.757751 7.56045 0.757751C5.51427 0.757751 3.7802 1.35358 2.35656 2.54523C0.932911 3.73856 0.221924 5.27402 0.221924 7.14996C0.221924 9.51825 1.38521 11.284 3.71177 12.449C3.84028 12.5124 3.97046 12.5742 4.10231 12.6326C4.19411 12.6743 4.2859 12.7144 4.38103 12.7527C4.4261 12.7711 4.46949 12.7895 4.51455 12.8078C4.31928 12.182 4.31261 11.516 4.49619 10.8735C4.69814 10.1658 5.11372 9.55664 5.66114 9.11936C4.70148 8.63202 4.22248 7.94106 4.22248 7.04815C4.22248 6.28877 4.53124 5.67124 5.15544 5.19558C5.7763 4.71992 6.55071 4.48459 7.47867 4.48459C8.12123 4.48459 8.67533 4.58807 9.14265 4.79669C9.15934 4.80337 9.17603 4.81172 9.19272 4.81839C9.45141 4.93522 9.68173 5.08543 9.88701 5.26735C10.2191 5.56276 10.4561 5.91491 10.5963 6.32548C10.7031 6.63258 10.7566 6.96971 10.7566 7.34023H14.8072C14.8072 5.33578 14.1262 3.73856 12.766 2.5469Z" fill="white"/>
</svg>
