<svg width="145" height="30" viewBox="0 0 145 30" fill="none" xmlns="http://www.w3.org/2000/svg">
<path d="M18.3538 3.97222C17.8682 3.51826 17.6262 2.96583 17.6262 2.31158C17.6262 1.65734 17.8732 1.10825 18.3705 0.665965C18.8662 0.223684 19.452 0.00170898 20.1263 0.00170898C20.8006 0.00170898 21.3764 0.223684 21.8504 0.665965C22.3244 1.10825 22.563 1.65734 22.563 2.31158C22.563 2.96583 22.326 3.51993 21.8504 3.97222C21.3764 4.42619 20.8006 4.65317 20.1263 4.65317C19.452 4.65317 18.8395 4.42619 18.3538 3.97222ZM22.0239 8.03787V22.8167H18.1953V8.03787H22.0239Z" fill="#180A2A"/>
<path d="M42.1502 11.4876C41.2422 11.4876 40.5146 11.788 39.9671 12.3889C39.418 12.9897 39.1443 13.8392 39.1443 14.9357V22.815H35.284V14.682C35.2623 13.6907 34.9986 12.9096 34.4929 12.3405C33.9872 11.7713 33.3429 11.4859 32.5619 11.4859C31.6756 11.4859 30.9363 11.7663 30.3471 12.3238C29.7563 12.8829 29.4609 13.7541 29.4609 14.9341V22.8133H25.6005V8.03781H29.4609V10.2208C29.8414 9.39803 30.4372 8.78051 31.2484 8.36994C32.0612 7.9577 32.879 7.75241 33.7018 7.75241C36.0651 7.87926 37.6356 8.7972 38.4167 10.5062C39.4715 8.65033 41.0219 7.7207 43.0681 7.7207C44.8823 7.7207 46.2842 8.28983 47.2773 9.42974C48.2687 10.5697 48.7644 12.2153 48.7644 14.3666V22.8167H44.9357V14.7788C44.9357 13.7457 44.677 12.9379 44.1613 12.3588C43.6439 11.778 42.9747 11.4893 42.1518 11.4893L42.1502 11.4876Z" fill="#180A2A"/>
<path d="M56.0111 8.03781V10.0306C56.3916 9.31291 57.0075 8.7488 57.862 8.33823C58.7165 7.92766 59.6395 7.7207 60.6309 7.7207C62.6136 7.7207 64.3126 8.43837 65.7263 9.87202C67.1399 11.3074 67.8459 13.1532 67.8459 15.4097C67.8459 17.6662 67.1449 19.5705 65.7413 20.9958C64.3377 22.4195 62.6353 23.1321 60.6309 23.1321C59.6395 23.1321 58.7165 22.9318 57.862 22.5313C57.0075 22.1307 56.39 21.5716 56.0111 20.8539V30H52.1508V8.03781H56.0111ZM56.0745 15.4748C56.0745 16.6982 56.4601 17.6695 57.2295 18.3855C57.9989 19.1032 58.9218 19.462 59.9983 19.462C61.0748 19.462 62.0178 19.0932 62.7672 18.3538C63.5165 17.6161 63.8904 16.6564 63.8904 15.4748C63.8904 14.2932 63.5099 13.3235 62.7505 12.5641C61.9911 11.8047 61.0731 11.4242 59.9967 11.4242C58.9202 11.4242 57.9705 11.7997 57.2111 12.5474C56.4517 13.2968 56.0712 14.2715 56.0712 15.4748H56.0745Z" fill="#180A2A"/>
<path d="M70.5046 22.8167V0H74.3649V22.8167H70.5046Z" fill="#180A2A"/>
<path d="M78.0985 3.97222C77.6128 3.51826 77.3708 2.96583 77.3708 2.31158C77.3708 1.65734 77.6178 1.10825 78.1152 0.665965C78.6108 0.223684 79.1967 0.00170898 79.8709 0.00170898C80.5452 0.00170898 81.121 0.223684 81.595 0.665965C82.069 1.10825 82.3076 1.65734 82.3076 2.31158C82.3076 2.96583 82.0707 3.51993 81.595 3.97222C81.121 4.42619 80.5452 4.65317 79.8709 4.65317C79.1967 4.65317 78.5841 4.42619 78.0985 3.97222ZM81.7686 8.03787V22.8167H77.9399V8.03787H81.7686Z" fill="#180A2A"/>
<path d="M97.6856 15.7585L104.617 1.01306H108.098L110.757 22.8167H106.706L105.029 8.2915L99.3329 20.3482H96.1051L90.3772 8.2915L88.6681 22.8167H84.6175L87.3062 1.01306H90.7243L97.6856 15.7602V15.7585Z" fill="#903DF7"/>
<path d="M123.35 15.9171V8.03784H127.21V22.8167H123.35V20.7288C122.949 21.4882 122.363 22.079 121.594 22.5013C120.823 22.9235 120.048 23.1338 119.267 23.1338C117.473 23.1338 116.055 22.5847 115.011 21.4882C113.967 20.3917 113.444 18.8195 113.444 16.7733V8.03784H117.336V16.0757C117.336 17.1939 117.61 18.0217 118.159 18.5591C118.708 19.0965 119.372 19.3669 120.152 19.3669C121.058 19.3669 121.818 19.0882 122.43 18.5291C123.041 17.97 123.348 17.1004 123.348 15.9188L123.35 15.9171Z" fill="#903DF7"/>
<path d="M135.089 22.8167L128.887 8.03784H133.001L136.798 17.8798L140.595 8.03784H144.741L138.507 22.8167H135.089Z" fill="#903DF7"/>
<path d="M15.4865 16.4212C15.4631 15.1778 15.0409 14.0379 14.2698 13.0348C13.0999 11.4393 10.5981 10.5831 8.58859 10.079C8.4701 10.0557 8.3516 10.0457 8.23477 10.0457C7.40362 10.0457 6.64423 10.5998 6.41725 11.4393C6.16523 12.3689 6.65591 13.3202 7.52545 13.674L7.54548 13.6824L7.69569 13.7341C8.27649 13.8826 8.89235 14.0362 9.44312 14.2749C9.46982 14.2865 9.49819 14.2982 9.52323 14.3099C10.0323 14.5352 10.4395 14.7956 10.7416 15.091C10.8501 15.1978 10.9469 15.3113 11.0303 15.4281C11.1355 15.5783 11.2223 15.7419 11.2857 15.9138C11.3975 16.2126 11.4426 16.538 11.4225 16.8952C11.3791 17.6546 11.032 18.2821 10.3794 18.7778C9.72517 19.2735 8.87065 19.5221 7.81752 19.5221C7.11154 19.5221 6.49235 19.402 5.96328 19.1616C5.91655 19.1416 5.87149 19.1183 5.82476 19.0966C5.57107 18.968 5.33741 18.8095 5.12712 18.6209C4.77663 18.3088 4.51293 17.965 4.33268 17.5878C4.24923 17.4126 4.18414 17.2306 4.13741 17.042C4.09068 16.8534 4.06231 16.6565 4.05229 16.4546H0C0 17.3925 0.176912 18.2571 0.534075 19.0448C1.11655 20.3383 2.17969 21.4031 3.4064 22.1057C5.43254 23.239 7.95772 23.4009 10.2058 22.8868C11.2957 22.6198 12.2754 22.1575 13.1466 21.4999C14.7872 20.3099 15.5466 18.4106 15.4882 16.4228L15.4865 16.4212Z" fill="#180A2A"/>
<path d="M12.7661 2.54696C12.2937 2.13306 11.7764 1.79091 11.2122 1.52054C11.1622 1.49717 11.1104 1.47214 11.0587 1.44877C11.012 1.42874 10.9669 1.40705 10.9202 1.38702C9.93214 0.968105 8.81225 0.757812 7.56051 0.757812C5.51433 0.757812 3.78026 1.35364 2.35662 2.5453C0.932972 3.73862 0.221985 5.27408 0.221985 7.15002C0.221985 9.51831 1.38527 11.2841 3.71183 12.449C3.84034 12.5125 3.97052 12.5742 4.10237 12.6326C4.19417 12.6744 4.28596 12.7144 4.38109 12.7528C4.42616 12.7712 4.46955 12.7895 4.51461 12.8079C4.31934 12.182 4.31267 11.5161 4.49625 10.8735C4.6982 10.1659 5.11378 9.5567 5.6612 9.11942C4.70154 8.63208 4.22254 7.94112 4.22254 7.04822C4.22254 6.28883 4.5313 5.6713 5.1555 5.19564C5.77637 4.71998 6.55077 4.48466 7.47873 4.48466C8.12129 4.48466 8.67539 4.58813 9.14271 4.79676C9.1594 4.80343 9.17609 4.81178 9.19278 4.81845C9.45147 4.93528 9.68179 5.08549 9.88707 5.26741C10.2192 5.56282 10.4562 5.91498 10.5964 6.32555C10.7032 6.63264 10.7566 6.96977 10.7566 7.34029H14.8072C14.8072 5.33584 14.1263 3.73862 12.7661 2.54696Z" fill="#903DF7"/>
</svg>
